<svg xmlns="http://www.w3.org/2000/svg" width="666.667" height="666.667" preserveAspectRatio="xMidYMid meet" version="1.0" viewBox="0 0 500 500"><metadata>Created by potrace 1.11, written by Peter Selinger 2001-2013</metadata><g fill="#000" stroke="none"><path d="M2230 4985 c-104 -13 -129 -17 -225 -35 -81 -15 -93 -18 -186 -45 -95 -27 -262 -85 -319 -111 -575 -261 -1012 -691 -1273 -1254 -72 -153 -160 -427 -181 -560 -3 -19 -8 -46 -10 -60 -29 -160 -42 -483 -25 -650 32 -320 110 -593 249 -875 385 -780 1127 -1293 2000 -1384 85 -9 463 -7 510 2 14 3 75 13 135 22 61 9 128 21 150 27 22 5 51 12 65 15 80 14 366 119 474 174 413 210 727 483 979 852 37 54 67 100 67 102 0 3 17 33 38 67 122 203 241 537 286 808 27 160 31 227 30 445 -2 252 -17 373 -78 620 -69 281 -266 674 -449 900 -23 28 -46 57 -52 65 -32 41 -279 283 -345 336 -197 159 -464 312 -680 389 -58 20 -112 40 -120 45 -20 9 -245 67 -290 74 -19 3 -53 8 -75 11 -22 4 -69 11 -105 17 -97 16 -448 17 -570 3z" transform="translate(0.000000,500.000000) scale(0.100000,-0.100000)"/></g></svg>